<svg xmlns="http://www.w3.org/2000/svg" viewBox="0 0 400 120" fill="none">
  <!-- Presso Logo — Dark variant (for dark backgrounds) -->

  <!-- Icon -->
  <g transform="translate(20, 10)">
    <path d="M50 28 C50 16, 58 10, 66 10 C70 10, 73 12, 73 16" stroke="#22C55E" stroke-width="4" stroke-linecap="round" fill="none"/>
    <circle cx="73" cy="12" r="4" stroke="#22C55E" stroke-width="3" fill="none"/>
    <path d="M50 28 L16 58 C14 60, 14 64, 18 64 L82 64 C86 64, 86 60, 84 58 L50 28Z" fill="#22C55E" opacity="0.15"/>
    <path d="M50 28 L16 58 C14 60, 14 64, 18 64 L82 64 C86 64, 86 60, 84 58 L50 28" stroke="#22C55E" stroke-width="3.5" stroke-linecap="round" stroke-linejoin="round" fill="none"/>
    <path d="M36 72 C36 78, 42 78, 42 84 C42 90, 36 90, 36 96" stroke="#22C55E" stroke-width="2.5" stroke-linecap="round" fill="none" opacity="0.5"/>
    <path d="M50 72 C50 78, 56 78, 56 84 C56 90, 50 90, 50 96" stroke="#22C55E" stroke-width="2.5" stroke-linecap="round" fill="none" opacity="0.35"/>
    <path d="M64 72 C64 78, 70 78, 70 84 C70 90, 64 90, 64 96" stroke="#22C55E" stroke-width="2.5" stroke-linecap="round" fill="none" opacity="0.5"/>
  </g>

  <!-- Wordmark: White for dark backgrounds -->
  <text x="140" y="72" font-family="'Inter','SF Pro Display','Segoe UI',system-ui,sans-serif" font-size="48" font-weight="700" letter-spacing="-1" fill="#FFFFFF">Presso</text>
  <text x="142" y="92" font-family="'Inter','SF Pro Display','Segoe UI',system-ui,sans-serif" font-size="12" font-weight="500" letter-spacing="3" fill="#22C55E" text-transform="uppercase">PREMIUM LAUNDRY</text>
</svg>
